<svg height="16px" width="16px" viewBox="0 0 24 24" xmlns="http://www.w3.org/2000/svg">
  <g fill="currentColor">
    <path d="M6,11c2.761,0,5-2.239,5-5S8.761,1,6,1S1,3.239,1,6S3.239,11,6,11z M6,3c1.654,0,3,1.346,3,3S7.654,9,6,9S3,7.654,3,6 S4.346,3,6,3z"/>
    <path d="M18,13c-2.762,0-5,2.238-5,5s2.238,5,5,5s5-2.238,5-5S20.762,13,18,13z M18,21c-1.654,0-3-1.346-3-3s1.346-3,3-3 s3,1.346,3,3S19.654,21,18,21z"/>
    <polygon points="15,1 18.293,4.293 1.293,21.293 2.707,22.707 19.707,5.707 23,9 23,1"/>
  </g>
</svg>
